<svg xmlns="http://www.w3.org/2000/svg" viewBox="0 0 319.375 100"><defs><clipPath><path d="M0 145h356v-145h-356v145z"/></clipPath></defs><g><path d="M8.802 0c-4.85 0-8.802 3.952-8.802 8.802v82.397c0 4.85 3.952 8.802 8.802 8.802h82.397c4.85 0 8.802-3.952 8.802-8.802v-82.397c0-4.852-3.952-8.802-8.802-8.802h-82.397zm135.885 4.167c-4.313.112-8.597 1.043-12.5 2.865-11.417 5.132-18.745 17.815-17.708 30.26.758 12.015 9.148 23.198 20.625 26.98 10.085 3.575 21.852 1.497 30.208-5.157l-2.917-4.48c-2.462 1.005-5.66 3.645-8.802 4.427-10.557 3.928-23.353-.715-29.115-10.365-6.413-10.01-4.648-24.407 4.218-32.397 8.84-8.483 24.225-8.958 33.23-.468l2.813-5.052c-5.592-4.6-12.863-6.8-20.052-6.615zm93.282.468l-5.208.99v59.375l5.208-.99v-59.375zm-57.135 28.125c-1.883 0-3.443.09-4.427.417l-1.093 4.48c1.312-.162 2.758-.313 4.48-.313 4.175 0 6.198 1.728 6.198 5v2.968h-.157c-1.307-1.472-4.093-2.708-6.875-2.708-5.808 0-10.782 5.208-10.782 11.51 0 5.235 4.257 11.407 10.885 11.407 2.782 0 5.387-1.08 7.76-3.698v3.177l4.115-.99v-21.667c0-5.402-2.252-9.583-10.105-9.583zm33.333 0c-9.412 0-16.355 7.977-16.355 16.407s6.943 16.355 16.355 16.355c2.943 0 6.712-1.005 10.313-2.968l-.99-5c-3.192 1.963-6.213 3.022-9.323 3.022-4.253 0-8.178-2.863-9.897-6.302l23.698-12.76c-2.457-4.828-7.012-8.75-13.802-8.75zm78.385 0c-2.375 0-5.048.833-7.5 3.125v-2.605l-4.948.938v30.782l5.26-.99v-18.49c0-4.828 2.99-7.5 5.938-7.5 3.518 0 5.833 2.435 5.833 7.343v19.635l5.26-.99v-18.49c0-4.828 2.99-7.5 5.938-7.5 3.518 0 5.833 2.435 5.833 7.343v19.635l5.208-.99v-20.938c0-6.713-5.223-10.313-10.052-10.313-4.012 0-6.965 1.87-9.01 4.897-2.213-3.273-4.978-4.897-7.76-4.897zm-40.522.522l-5.208.938v20.573c0 7.612 6.042 10.73 10.625 10.73 3.273 0 6.218-1.592 8.593-4.375v3.855l4.897-.99v-30.73l-5.208.938v17.76c0 4.173-2.735 8.282-7.813 8.282-3.598 0-5.885-3.127-5.885-6.563v-20.417zm-38.022 4.063c2.538 0 4.73.665 6.615 2.708l-17.76 9.843c-.163-.573-.157-1.147-.157-1.718 0-6.303 6.148-10.833 11.302-10.833zm-34.48 10.157c4.422 0 6.458 4.027 6.458 6.563 0 2.538-2.038 6.51-6.458 6.51-4.418 0-6.458-3.973-6.458-6.51s2.042-6.563 6.458-6.563zm-20.938 27.5v2.708h2.5v-2.708h-2.5zm-41.198.105v18.75h11.042v-2.188h-8.385v-6.302h7.657v-2.188h-7.657v-5.885h8.333v-2.188h-10.99zm103.647 0v18.75h2.708v-18.75h-2.708zm81.772.26c-.025.475-.518 1.068-1.042 1.093-1.273.073-2.483-.99-3.907-.99-1.622 0-2.532 1.443-2.657 2.917h1.407c.075-.548.518-1.147 1.093-1.147 1.248 0 2.482 1.042 3.855 1.042 1.698 0 2.507-1.367 2.657-2.865-.498.027-.88 0-1.355 0l-.052-.052zm-15.625 4.323c-2.845 0-4.303 1.682-5.052 3.802-.425 1.173-.573 2.503-.573 3.802 0 .923.088 1.753.313 2.552.573 2.222 1.99 3.997 4.635 4.272l-1.407 1.823-.157.052.365.573c.2-.052.452-.132.677-.157.325-.1.637-.098.938 0 .773.302.877 1.027.677 1.302-.225.348-.533.652-1.407.625-.323-.023-.612-.057-.885-.157l-.73-.313c-.148.25-.197.665-.522.99.748.325 1.468.527 2.292.625 1.548.05 3.258-.493 3.333-2.24.073-1.173-.895-1.725-1.718-1.875-.45-.073-.927-.073-1.25.052l-.052-.052.99-1.198c1.947-.177 3.155-1.29 3.855-2.813.348-.698.523-1.415.573-2.24h-2.397c-.048.725-.17 1.453-.522 1.98-.373.648-.987 1.198-2.135 1.198-1.073 0-1.765-.603-2.24-1.302-.648-.95-.782-2.44-.782-3.49 0-.873-.035-2.37.365-3.593.398-1.223 1.262-2.135 2.76-2.135.923 0 1.555.253 1.98.677.4.523.548 1.283.573 2.032h2.397c-.023-.848-.198-1.643-.573-2.292-.823-1.522-2.327-2.5-4.323-2.5zm-137.292.052c-1.972 0-3.702.907-4.375 2.605-.153.372-.238.833-.26 1.302v.21c.205 4.953 7.205 2.923 7.5 6.147l.105-.105c0 .523-.062.98-.26 1.355-.4.723-1.248 1.1-2.397 1.25-2.022.173-2.757-.828-2.657-2.552h-2.397c.05 2.197 1.875 4.293 4.897 4.218 2.522.027 4.303-.987 5.052-2.708.25-.5.365-1.068.365-1.667 0-.425-.058-.767-.208-1.042-.548-1.772-2.353-1.902-4.375-2.5-.623-.177-1.138-.322-1.563-.522-.823-.35-1.455-.885-1.355-2.083 0-1.448.793-2.087 2.24-2.188 1.698-.1 2.34.563 2.24 2.135l2.397.052c0-.55-.138-.98-.313-1.355-.675-1.847-2.365-2.552-4.635-2.552zm34.532.052c-2.197 0-3.812.987-4.635 2.708-.823 1.048-1.198 2.61-1.198 4.532.025 2.745.535 4.442 1.458 5.365 1.098 1.373 2.628 1.875 4.375 1.875 1.747 0 3.225-.53 4.323-1.927.923-1.075 1.458-2.888 1.458-5.833 0-1.997-.403-3.587-1.302-4.635-1.023-1.322-2.507-2.083-4.48-2.083zm20.468 0c-2.322 0-3.655 1.568-4.48 3.49-.523 1.223-.73 2.71-.73 3.958 0 2.172.368 3.612 1.042 4.583 1.048 1.748 2.548 2.343 4.272 2.343 2.272 0 3.835-1.198 4.583-3.022.25-.498.392-1.042.417-1.667l-2.397.052c.05 1.498-.635 3.09-2.657 2.917l.052-.105c-1.935-.063-2.585-1.778-2.708-3.542.125-.523.318-1.057.468-1.407h7.397c-.05-1.323-.122-2.787-.522-4.01-.623-2.022-1.818-3.593-4.74-3.593zm42.865 0c-2.197 0-3.812.987-4.635 2.708-.823 1.048-1.198 2.61-1.198 4.532.025 2.745.535 4.442 1.458 5.365 1.098 1.373 2.627 1.875 4.375 1.875 1.747 0 3.223-.53 4.323-1.927.923-1.075 1.458-2.888 1.458-5.833 0-1.997-.403-3.587-1.302-4.635-1.023-1.322-2.507-2.083-4.48-2.083zm26.042 0c-2.77 0-4.315.92-4.74 2.917-.1.325-.13.643-.105 1.042h1.927c.375-1.472.603-2.032 2.5-2.032 1.598 0 2.448.512 2.448 2.135 0 1.948-.768 1.102-5.313 3.073-1.173.448-1.858 1.29-2.083 2.188-.25.523-.26.995-.26 1.093 0 2.672 1.295 4.063 4.167 4.063 1.497 0 2.945-1.02 3.593-2.343h.052c.125.973.355 1.47.73 1.772.523.275 1.188.31 2.188.26l.677-.105-.157-1.093v-.052c-1.248.1-1.198-.498-1.198-1.147v-4.74c0-1.298-.005-2.475-.105-3.698-.15-.923-.578-3.333-4.323-3.333zm25.833 0c-2.772 0-4.368.92-4.792 2.917-.1.325-.13.643-.105 1.042h1.927c.373-1.472.603-2.032 2.5-2.032 1.598 0 2.448.512 2.448 2.135 0 1.948-.77 1.102-5.313 3.073-1.173.448-1.807 1.29-2.032 2.188-.248.523-.313.995-.313 1.093 0 2.672 1.297 4.063 4.167 4.063 1.498 0 2.945-1.02 3.593-2.343h.052c.123.973.355 1.47.73 1.772.523.275 1.19.31 2.188.26l.677-.105-.157-1.093v-.052c-1.248.1-1.198-.498-1.198-1.147v-4.74c0-1.298-.005-2.475-.105-3.698-.148-.923-.527-3.333-4.272-3.333zm13.593 0c-2.197 0-3.812.987-4.635 2.708-.823 1.048-1.198 2.61-1.198 4.532.025 2.745.535 4.442 1.458 5.365 1.098 1.373 2.627 1.875 4.375 1.875 1.747 0 3.225-.53 4.323-1.927.923-1.075 1.458-2.888 1.458-5.833 0-1.997-.403-3.587-1.302-4.635-1.023-1.322-2.507-2.083-4.48-2.083zm-175.052.052c-1.747 0-2.835.787-3.958 2.135h-.052l-.105-1.772h-2.343v13.647h2.5v-9.115c0-.748.087-1.297.885-1.772.523-.748 1.315-1.093 2.24-1.093 1.797 0 2.343 1.085 2.343 2.708v9.272h2.5v-7.135c0-1.223-.057-2.367-.157-3.49-.148-2.397-1.732-3.385-3.855-3.385zm33.282 0c-1.747 0-2.887.787-4.01 2.135h-.052l-.052-1.772h-2.343v13.647h2.5v-9.115c0-.748.087-1.297.885-1.772.523-.748 1.263-1.093 2.188-1.093 1.797 0 2.343 1.085 2.343 2.708v9.272h2.5v-7.135c0-1.223-.003-2.367-.105-3.49-.148-2.397-1.732-3.385-3.855-3.385zm63.333 0c-1.747 0-2.887.787-4.01 2.135h-.052l-.052-1.772h-2.343v13.647h2.448v-9.115c0-.748.138-1.297.938-1.772.523-.748 1.265-1.093 2.188-1.093 1.798 0 2.343 1.085 2.343 2.708v9.272h2.5v-7.135c0-1.223-.057-2.367-.157-3.49-.15-2.397-1.682-3.385-3.802-3.385zm-76.198.365v13.647h2.5v-13.647h-2.5zm96.615 0l4.583 13.647h2.708c1.547-4.543 3.087-9.103 4.635-13.647h-2.552l-2.032 7.083c-.423 1.498-.852 3.035-1.302 4.532h-.052c-.723-2.397-1.462-4.817-2.135-7.188l-1.25-4.427h-2.605zm-70.782 1.563c1.073 0 1.898.432 2.448 1.355.548.798.782 2.172.782 4.218 0 1.522-.23 2.662-.73 3.385-.523.948-1.277 1.563-2.5 1.563-1.198 0-2.028-.613-2.552-1.563-.523-.848-.73-2.13-.73-3.802 0-1.873.285-3.128.833-3.802.548-.923 1.35-1.355 2.448-1.355zm20.573 0c1.223 0 1.89.662 2.24 1.51.323.698.315 1.67.365 2.343l-5.105-.105c-.05-.277-.132-.64-.157-.99.05-.448.19-.877.365-1.25.373-.848 1.043-1.51 2.292-1.51zm42.76 0c1.073 0 1.898.432 2.448 1.355.548.798.782 2.172.782 4.218 0 1.522-.23 2.662-.73 3.385-.523.948-1.277 1.563-2.5 1.563-1.198 0-2.028-.613-2.552-1.563-.525-.848-.73-2.13-.73-3.802 0-1.873.285-3.128.833-3.802.55-.923 1.35-1.355 2.448-1.355zm65.468 0c1.073 0 1.898.432 2.448 1.355.548.798.782 2.172.782 4.218 0 1.522-.178 2.662-.677 3.385-.525.948-1.328 1.563-2.552 1.563-1.198 0-2.027-.613-2.552-1.563-.523-.848-.73-2.13-.73-3.802 0-1.873.283-3.128.833-3.802.548-.923 1.348-1.355 2.448-1.355zm-37.5 4.897c0 .948-.002 1.89-.052 2.813l-.052.105c-.075 2.322-1.783 2.917-2.657 2.917-1.273-.025-1.908-.48-2.083-1.355-.05-.248-.105-.562-.105-.885.023-.848.433-1.71 1.407-2.083 1.173-.498 2.443-.887 3.542-1.51zm25.782 0c0 .948-.002 1.89-.052 2.813l-.052.105c-.075 2.322-1.782 2.917-2.657 2.917-1.272-.025-1.91-.48-2.083-1.355-.052-.248-.052-.562-.052-.885.023-.848.38-1.71 1.355-2.083 1.173-.498 2.443-.887 3.542-1.51z" fill="#100f0d"/><path d="M14.5 9l-1.438 3.657-4.062-.657 2.657 3-2.657 3 4.062-.657 1.438 3.657 1.438-3.657 4.062.657-2.657-3 2.657-3-4.062.657-1.438-3.657zm66.188-5c-18.367 3.235-35.97 11.907-50.157 26.093-14.837 14.835-23.672 33.413-26.532 52.687v8.407c0 2.703 2.108 4.812 4.812 4.812h82.377c2.703 0 4.812-2.108 4.812-4.812v-82.377c0-2.703-2.108-4.812-4.812-4.812h-10.5z" fill="#fff"/></g></svg>